<?xml version="1.0" standalone="no"?><!DOCTYPE svg PUBLIC "-//W3C//DTD SVG 1.1//EN" "http://www.w3.org/Graphics/SVG/1.1/DTD/svg11.dtd"><svg t="1789027335595" class="icon" viewBox="0 0 1024 1024" version="1.1" xmlns="http://www.w3.org/2000/svg" p-id="9399" xmlns:xlink="http://www.w3.org/1999/xlink" width="200" height="200"><path d="M879 336.1H147c-6.3 0-11.3 5.1-11.3 11.3v194.3c0 4.5 2.7 8.7 6.9 10.4 0.9 0.4 87.6 37.5 148.2 77.2 20.3 13.3 35.3 25.4 44.7 35.9 9.2 10.3 17.7 22.7 26.7 35.8 15.2 22.3 31 45.3 53.6 63.5 26.3 21.2 57.1 31.5 94 31.5 38.3 0 71.5-12.7 101.2-38.7 25.4-22.2 44.3-50.2 62.6-77.2 9.3-13.7 18-26.7 27.1-38 4.9-6.1 11.6-12.2 20.2-18.2 54.2-38.2 159.3-58.5 160.3-58.7 5.3-1 9.2-5.7 9.2-11.1V347.4c-0.1-6.3-5.1-11.3-11.4-11.3z m-720.7 83.6h234.9v0.5c0.1 1.5 0.3 2.9 0.4 4.4v0.1c0.1 1.4 0.2 2.8 0.3 4.3 0 0.4 0 0.9 0.1 1.3 0 1.1 0.1 2.1 0.1 3.2v1.3c0 1.5 0.1 2.9 0.1 4.4 0 2.1 0 4.2-0.1 6.3v0.3c-0.1 2-0.2 4.1-0.3 6.1v0.4c-0.1 2-0.3 3.9-0.5 5.9 0 0.2 0 0.4-0.1 0.6-0.2 1.9-0.4 3.8-0.7 5.7 0 0.2-0.1 0.5-0.1 0.7-0.3 1.9-0.5 3.7-0.8 5.6 0 0.2-0.1 0.5-0.1 0.7-0.3 1.8-0.6 3.7-1 5.5-0.1 0.3-0.1 0.5-0.2 0.8l-1.2 5.4c-0.1 0.3-0.1 0.6-0.2 0.8-0.4 1.8-0.9 3.6-1.3 5.3-0.1 0.3-0.1 0.6-0.2 0.8-0.5 1.8-1 3.5-1.5 5.3-0.1 0.3-0.2 0.5-0.2 0.8-0.5 1.8-1.1 3.5-1.7 5.2-0.1 0.3-0.2 0.5-0.3 0.8-0.6 1.7-1.2 3.5-1.9 5.2-0.1 0.2-0.2 0.5-0.3 0.7-0.7 1.7-1.3 3.4-2 5.2-0.1 0.2-0.2 0.4-0.3 0.7-0.7 1.7-1.5 3.4-2.2 5.1l-0.3 0.6c-0.8 1.7-1.6 3.5-2.4 5.2-0.1 0.1-0.1 0.3-0.2 0.4-0.9 1.7-1.8 3.5-2.7 5.2-0.1 0.1-0.1 0.2-0.2 0.3-0.9 1.8-1.9 3.5-2.9 5.2 0 0 0 0.1-0.1 0.1-1 1.7-2 3.4-3.1 5.1 0 0.1-0.1 0.1-0.1 0.2-1 1.7-2.1 3.3-3.2 4.9-0.1 0.1-0.2 0.2-0.2 0.4-1.1 1.6-2.2 3.2-3.3 4.7-0.1 0.2-0.2 0.3-0.3 0.5-1.1 1.5-2.2 3-3.4 4.5-0.1 0.2-0.3 0.4-0.4 0.6-1.1 1.5-2.3 2.9-3.5 4.4-0.2 0.2-0.3 0.4-0.5 0.6l-3.6 4.2c-0.2 0.2-0.4 0.4-0.5 0.6-1.2 1.4-2.4 2.7-3.7 4.1l-0.6 0.6c-1.2 1.3-2.5 2.6-3.8 3.9l-0.6 0.6c-1.3 1.3-2.6 2.6-3.9 3.8l-0.6 0.6c-1.3 1.3-2.7 2.5-4.1 3.7l-0.6 0.6-4.2 3.6c-0.2 0.2-0.4 0.3-0.6 0.5-1.4 1.2-2.9 2.4-4.4 3.5-0.2 0.1-0.4 0.3-0.6 0.4-1.5 1.2-3 2.3-4.6 3.4-0.2 0.1-0.3 0.2-0.5 0.4l-4.8 3.3c-0.1 0.1-0.3 0.2-0.4 0.3-1.7 1.1-3.3 2.2-5 3.3-0.1 0.1-0.2 0.1-0.3 0.2-1.8 1.1-3.5 2.2-5.3 3.2-52.1-33.2-117.8-63-139.1-72.4V419.7zM682.9 628c-9.6 12-18.6 25.4-28.2 39.5-35.2 52.1-71.6 105.9-145 105.9-70.7 0-100.3-43.2-128.9-85.1-9.4-13.7-18.3-26.7-28.5-38.1-8.1-9.1-19.6-19-34.3-29.5 0 0 0.1 0 0.1-0.1 1.7-1.1 3.4-2.3 5.1-3.4 0.2-0.2 0.5-0.3 0.7-0.5 1.6-1.1 3.2-2.3 4.8-3.5 0.3-0.2 0.5-0.4 0.8-0.6 1.6-1.2 3.1-2.3 4.6-3.5 0.3-0.2 0.6-0.4 0.8-0.7 1.5-1.2 3-2.4 4.5-3.7 0.2-0.2 0.5-0.4 0.7-0.6l4.5-3.9c0.2-0.1 0.3-0.3 0.5-0.4 1.5-1.4 3-2.7 4.5-4.1l0.2-0.2c1.5-1.4 2.9-2.9 4.4-4.3l0.5-0.5c1.4-1.4 2.7-2.8 4-4.2 0.2-0.3 0.5-0.5 0.7-0.8 1.3-1.4 2.6-2.8 3.8-4.3 0.2-0.3 0.5-0.6 0.7-0.8 1.2-1.4 2.5-2.9 3.7-4.3 0.2-0.3 0.5-0.6 0.7-0.8l3.6-4.5c0.2-0.2 0.4-0.5 0.5-0.7l3.6-4.8c0.1-0.1 0.2-0.3 0.3-0.4 1.1-1.6 2.3-3.2 3.4-4.8 0.1-0.2 0.2-0.3 0.3-0.5 1.1-1.6 2.2-3.3 3.2-5 0.2-0.3 0.3-0.5 0.5-0.8 1-1.6 2-3.3 3-4.9 0.2-0.3 0.4-0.6 0.5-0.9 1-1.6 1.9-3.3 2.8-4.9 0.2-0.3 0.4-0.6 0.5-1 0.9-1.7 1.8-3.4 2.7-5 0.1-0.3 0.3-0.6 0.4-0.9 0.9-1.7 1.7-3.5 2.6-5.3l0.3-0.6c0.8-1.8 1.7-3.7 2.5-5.5 0-0.1 0.1-0.1 0.1-0.2 0.8-1.9 1.6-3.8 2.3-5.6 0.1-0.2 0.2-0.4 0.3-0.7 0.7-1.8 1.4-3.7 2.1-5.5l0.3-0.9c0.6-1.8 1.3-3.6 1.9-5.5 0.1-0.3 0.2-0.7 0.3-1 0.6-1.8 1.2-3.7 1.7-5.5 0.1-0.3 0.2-0.6 0.3-1 0.5-1.9 1.1-3.8 1.5-5.7 0.1-0.3 0.1-0.5 0.2-0.8 0.5-2 1-3.9 1.4-5.9 0-0.1 0.1-0.3 0.1-0.4 0.4-2 0.9-4 1.3-6 0-0.1 0.1-0.3 0.1-0.4 0.4-2 0.7-4 1.1-6.1 0-0.3 0.1-0.5 0.1-0.8 0.3-2 0.6-3.9 0.8-5.9 0-0.3 0.1-0.6 0.1-1 0.2-2 0.5-3.9 0.7-5.9 0-0.3 0.1-0.7 0.1-1 0.2-2 0.3-4 0.5-6 0-0.3 0-0.6 0.1-0.9 0.1-2 0.2-4.1 0.3-6.1v-0.6c0.1-2.2 0.1-4.3 0.1-6.5v-4.5-1.4c0-1-0.1-2-0.1-3.1 0-0.6-0.1-1.1-0.1-1.7 0-1-0.1-1.9-0.2-2.9 0-0.6-0.1-1.1-0.1-1.7-0.1-1-0.1-2-0.2-3 0-0.4-0.1-0.8-0.1-1.1h188.5c0 0.3-0.1 0.7-0.1 1-0.1 1-0.2 2.1-0.2 3.1 0 0.5-0.1 1.1-0.1 1.6-0.1 1-0.1 1.9-0.2 2.9 0 0.5-0.1 1.1-0.1 1.6 0 1-0.1 2.1-0.1 3.1v5.9c0 9.5 0.6 18.9 1.9 28.3 3.7 28 12.8 55.2 27 79.7 0 0.1 0.1 0.1 0.1 0.2 1 1.8 2.1 3.5 3.2 5.3 0.4 0.6 0.8 1.2 1.1 1.8 0.8 1.2 1.5 2.4 2.3 3.6 0.4 0.7 0.9 1.4 1.4 2 0.8 1.1 1.5 2.2 2.3 3.3 0.5 0.7 1 1.4 1.4 2l2.4 3.3c0.5 0.6 0.9 1.3 1.4 1.9 0.9 1.2 1.8 2.4 2.8 3.6l1.2 1.5c1.3 1.7 2.7 3.3 4.1 4.9 0.2 0.2 0.4 0.5 0.6 0.7 1.2 1.4 2.4 2.7 3.6 4.1 0.5 0.5 1 1.1 1.5 1.6 1 1 1.9 2.1 2.9 3.1 0.6 0.6 1.1 1.2 1.7 1.7l2.8 2.8c0.6 0.6 1.2 1.2 1.8 1.7 1 0.9 2 1.9 3 2.8 0.6 0.5 1.2 1.1 1.7 1.6 1.2 1 2.3 2.1 3.5 3.1 0.4 0.4 0.9 0.8 1.3 1.1 1.6 1.4 3.3 2.7 4.9 4 0.4 0.3 0.8 0.6 1.2 1 1.3 1 2.5 2 3.8 2.9 0.6 0.5 1.3 0.9 1.9 1.4 0.7 0.5 1.5 1.1 2.2 1.6-4.4 4.1-8.4 8.3-11.8 12.5z m184.8-83.2c-26.6 5.7-104 24.4-153.6 56.3l-2.7-1.8-1.8-1.2c-1.3-0.9-2.6-1.8-3.9-2.8-0.3-0.2-0.6-0.4-0.9-0.7-1.6-1.2-3.1-2.4-4.7-3.6-0.5-0.4-0.9-0.8-1.4-1.1-1.1-0.9-2.1-1.7-3.2-2.6l-1.8-1.5-2.7-2.4c-0.6-0.6-1.2-1.1-1.8-1.7-0.8-0.8-1.7-1.5-2.5-2.3-0.6-0.6-1.2-1.2-1.9-1.8-0.8-0.8-1.6-1.6-2.4-2.3-0.6-0.6-1.2-1.3-1.8-1.9-0.8-0.8-1.5-1.6-2.3-2.4-0.6-0.6-1.2-1.3-1.8-2-0.7-0.8-1.5-1.6-2.2-2.4-0.6-0.7-1.2-1.3-1.7-2-0.7-0.8-1.4-1.7-2.1-2.5-0.6-0.7-1.1-1.4-1.7-2-0.7-0.9-1.4-1.7-2.1-2.6-0.5-0.7-1.1-1.4-1.6-2.1-0.7-0.9-1.3-1.8-2-2.7-0.5-0.7-1-1.4-1.5-2-0.7-1-1.4-1.9-2-2.9-0.4-0.7-0.9-1.3-1.3-2l-2.1-3.3c-0.4-0.6-0.7-1.1-1.1-1.7-1-1.7-2.1-3.4-3-5.1-16.9-29.3-25.8-62.7-25.8-96.7 0-1.5 0-2.9 0.1-4.4v-1.3c0-1.1 0.1-2.1 0.1-3.2 0-0.4 0-0.9 0.1-1.3 0.1-1.4 0.2-2.8 0.3-4.3v-0.1c0.1-1.5 0.2-2.9 0.4-4.4v-0.5h240.4v125.3z m0-147.8H158.3v-38.2h709.4V397z" fill="#212121" p-id="9400"></path></svg>