<?xml version="1.0" standalone="no"?><!DOCTYPE svg PUBLIC "-//W3C//DTD SVG 1.1//EN" "http://www.w3.org/Graphics/SVG/1.1/DTD/svg11.dtd"><svg t="1789029017591" class="icon" viewBox="0 0 1024 1024" version="1.1" xmlns="http://www.w3.org/2000/svg" p-id="16252" xmlns:xlink="http://www.w3.org/1999/xlink" width="200" height="200"><path d="M503.3472 968.9344l-0.0256-15.232-4.9664 14.42816a172.72832 172.72832 0 0 1-19.13856-7.74144l12.928-27.86304c5.55008 2.52416 10.84928 4.66944 16.20992 6.55872l-5.01248 14.54592v15.30368zM640.55296 966.38976l-10.5728-28.84608a190.12608 190.12608 0 0 0 12.03712-5.02784l13.0048 27.83232c-4.49536 2.16576-9.3696 4.19328-14.46912 6.0416z" p-id="16253"></path><path d="M835.7888 48.9216h-181.8624a117.248 117.248 0 0 0-52.94592 12.62592 117.28896 117.28896 0 0 0-52.98688-12.62592H483.16416a15.36 15.36 0 1 0 0 30.72h64.82944c7.95136 0 15.80544 1.0752 23.35232 3.1744-0.41472 0.4096-0.79872 0.83968-1.2032 1.24928a115.28704 115.28704 0 0 0-4.91008 5.32992c-0.41984 0.48128-0.84992 0.95744-1.25952 1.44384-1.4592 1.73568-2.87744 3.50208-4.22912 5.31456-0.2048 0.27648-0.39424 0.5632-0.59904 0.8448-1.14176 1.55136-2.24256 3.13344-3.30752 4.74112-0.39936 0.60928-0.78848 1.22368-1.1776 1.83808-0.86528 1.36192-1.69984 2.73408-2.50368 4.12672-0.36352 0.62464-0.73216 1.24928-1.08032 1.87904-0.96256 1.73056-1.88416 3.48672-2.75968 5.26336-0.12288 0.26112-0.27136 0.51712-0.39424 0.77312-0.97792 2.03264-1.8944 4.10112-2.75968 6.19008-0.25088 0.60928-0.48128 1.2288-0.72704 1.83808a122.2144 122.2144 0 0 0-2.44736 6.76864c-0.53248 1.63328-1.024 3.28192-1.48992 4.9408-0.1536 0.55296-0.32256 1.10592-0.47104 1.664a116.8896 116.8896 0 0 0-1.54624 6.64576c-0.1024 0.48128-0.16896 0.96256-0.26112 1.44384-0.33792 1.78176-0.63488 3.56864-0.89088 5.36576-0.10752 0.73728-0.19456 1.47968-0.28672 2.22208-0.19968 1.6384-0.3584 3.28192-0.49152 4.93568-0.05632 0.70144-0.11776 1.39264-0.15872 2.0992-0.13824 2.304-0.2304 4.61824-0.2304 6.94272V218.22976l-23.1168-10.04032-6.144-2.4576-0.2304 0.09216-0.48128-0.19456-32.12288 13.9264-26.1376-11.3664-6.13376-2.86208-32.81408 14.27968-32.41984-14.08-32.50176 14.1824-32.55296-14.1824-32.41472 14.09536v-52.9408c0-47.99488 39.04512-87.04 87.04-87.04h14.63296a15.36 15.36 0 1 0 0-30.72H366.1312c-64.93696 0-117.76 52.82816-117.76 117.76v47.7696h-0.0512l0.0512 77.0048v20.0704h-0.0512l0.0512 76.9536v67.06688l-0.13824 3.73248c-1.28512 34.54464-16.1792 66.3296-41.92768 89.50784l-74.7776 74.7008a209.03424 209.03424 0 0 0-19.57888 22.66624l-0.01024 0.01024c-61.06112 81.68448-54.5536 198.29248 19.59424 272.50176a205.66528 205.66528 0 0 0 69.35552 45.84448c3.13344 1.26976 6.30272 2.46272 9.4976 3.57888l0.01024 0.00512 0.06656 0.02048a206.1824 206.1824 0 0 0 9.5232 3.072h0.00512l0.01024 0.00512a211.3024 211.3024 0 0 0 14.3872 3.6608l0.3072 0.06656c10.32192 2.24256 20.85888 3.712 31.5648 4.37248 0.29184 0.02048 0.59392 0.05632 0.88576 0.07168l0.16896 0.01024c1.1264 0.06144 2.2528 0.11264 3.38432 0.15872 0.768 0.03584 1.52064 0.08704 2.304 0.10752 1.664 0.04608 3.31776 0.06144 4.95616 0.06656 0.46592 0.00512 0.9216 0.03584 1.3824 0.03584h0.00512c0.39424 0 0.78848-0.04096 1.18272-0.04096 1.34144-0.01024 2.688-0.02048 3.94752-0.05632 1.09568 0 2.19648-0.04608 3.48672-0.10752 1.26464-0.01536 2.52416-0.0768 3.78368-0.18944 0.3328-0.01536 0.67072-0.05632 1.00352-0.0768 0.98816-0.06656 1.98144-0.14848 2.9696-0.22528 0.87552-0.07168 1.76128-0.11264 2.62656-0.19968 2.17088-0.22016 4.34176-0.4352 6.39488-0.69632 0.94208-0.10752 1.82272-0.22016 2.64704-0.32768 0.95744-0.12288 1.89952-0.2816 2.85184-0.41984 1.32608-0.18432 2.65728-0.36352 3.97824-0.61952 1.664-0.2816 3.31776-0.55808 4.79744-0.8704l2.16576-0.43008c0.79872-0.16384 1.60256-0.31232 2.4064-0.4864l0.37888-0.0768a177.26464 177.26464 0 0 0 8.66304-2.11968c0.52736-0.128 1.04448-0.30208 1.56672-0.44032 1.54112-0.41984 3.08224-0.83968 4.608-1.29024 0.2816-0.08704 0.5632-0.14848 0.84992-0.24064 0.46592-0.11264 0.93184-0.256 1.39264-0.4096 2.46784-0.77312 4.93568-1.59744 7.10144-2.37056l0.16384-0.06144a192.13824 192.13824 0 0 0 12.82048-4.98176c1.7152-0.73216 3.42528-1.46944 5.12-2.24256 0.24576-0.10752 0.47104-0.2048 0.72192-0.32256l4.7616-2.26816c0.57856-0.29184 1.09056-0.5888 1.65888-0.88576 2.52416-1.27488 5.02272-2.60608 7.5008-3.98336l0.68608-0.39424c2.7392-1.54112 5.49888-3.04128 8.17664-4.7104l8.66816-5.40672-0.0768-0.45056a208.12288 208.12288 0 0 0 24.35072-19.92704l0.10752 0.11264 0.34816-0.34816c12.30848 11.7248 25.79968 21.888 40.29952 30.06976l0.0256 0.01536c2.09408 1.17248 4.18304 2.29888 6.27712 3.4304l0.5888 0.31232c2.90816 1.47968 5.82656 2.90816 9.09312 4.48a227.8912 227.8912 0 0 0 18.73408 7.5776c3.10784 1.09056 6.27712 2.0736 9.6768 3.11296 3.23072 0.9472 6.50752 1.83296 9.59488 2.56512 2.49856 0.62464 4.992 1.18784 7.59808 1.71008a265.216 265.216 0 0 0 6.50752 1.21856c1.52576 0.27648 3.08736 0.51712 4.61824 0.74752l1.51552 0.2304c1.06496 0.1536 2.0992 0.3072 3.0208 0.39936l3.968 0.4608c2.52416 0.2816 5.04832 0.50688 7.56736 0.67584l0.33792 0.02048a207.01696 207.01696 0 0 0 14.57152 0.52224c1.9456 0 3.83488-0.0512 5.4784-0.1024 1.1264 0 2.25792-0.05632 3.33824-0.11264 1.85344-0.06144 3.77344-0.13312 5.248-0.29184l3.98848-0.3072c1.58208-0.11264 3.16928-0.29184 4.43392-0.4352 1.72032-0.1536 3.48672-0.36352 5.21728-0.61952 0.60416-0.05632 1.14176-0.128 1.59232-0.20992 1.536-0.19968 3.02592-0.4096 4.52096-0.68608 0.52224-0.06656 1.03424-0.15872 1.54624-0.2816 1.5104-0.25088 3.00544-0.512 4.34688-0.78848l4.50048-0.90112c1.6896-0.32256 3.3792-0.7168 5.03296-1.15712 1.3568-0.32256 2.70848-0.65536 3.71712-0.9472 2.10432-0.53248 4.21376-1.13152 6.28224-1.77152a64 64 0 0 0 2.29376-0.64512l0.75264-0.22528c2.30912-0.73728 4.67456-1.52576 6.54848-2.22208 1.62816-0.5376 3.25632-1.14176 4.72064-1.7152a221.36832 221.36832 0 0 0 14.1056-5.888l2.98496-1.42336 0.20992 1.26976 16.52224-10.31168c1.01888-0.61952 2.04288-1.17248 3.072-1.81248l7.20896-4.61824v-0.00512l1.44384-0.90624-0.0512-0.30208a208.86016 208.86016 0 0 0 28.30336-23.66976l134.20544-134.20544 0.01024 0.00512 10.92608-10.94144 11.19744-11.19744-0.01024-0.00512 21.59104-21.62176c32.84992-32.79872 53.38112-74.50624 59.38176-120.63744 1.1776-7.02976 1.75616-13.53728 1.75616-19.87584V166.6816c-0.02048-64.93184-52.84352-117.76-117.78048-117.76z m0 30.72c47.99488 0 87.04 39.04512 87.04 87.04v39.60832l-30.82752 13.42464-32.6144-14.1824-32.26624 14.0544-26.21952-11.392-6.0928-2.432-0.70656 0.27648-0.5888-0.19968-31.60576 13.7216-26.18368-11.37152-6.12864-2.85696-32.80896 14.27968-32.35328-14.08-32.54784 14.17728-32.53248-14.17728-32.4608 14.12096V166.6816c0-3.84512 0.24576-7.64416 0.72704-11.37664 3.36896-26.1376 18.26816-49.17248 41.33376-63.08864l0.06656-0.03584a86.31296 86.31296 0 0 1 44.91264-12.53376h181.85728z m87.04 160.1536v12.72832l-30.86848 13.42464-32.56832-14.1824-32.55808 14.1824-32.3072-14.08-32.6144 14.18752-32.5632-14.19264-32.57344 14.19264-0.09216-0.04096-32.24576-14.25408-32.56832 14.17728-32.52224-14.17728-32.4608 14.12608v-12.73856l32.4608-14.11072 32.50176 14.18752 32.56832-14.18752 32.36352 14.08 32.59392-14.1824 32.53248 14.12608 32.5888-14.15168 32.31744 14.32064 32.58368-14.19264 32.6144 14.1824 30.81728-13.42464z m0 46.22848v17.29024l-30.82752 13.42464-32.6144-14.1824-32.27136 14.05952-26.2144-11.392-6.18496-2.88768-0.50176 0.22016-0.7936-0.31744-4.13184 2.46272-27.38688 11.93472-26.16832-11.40736-6.144-2.8672-32.80896 14.27968-32.35328-14.08-32.54784 14.17728-32.53248-14.1824-32.4608 14.12608v-17.29536l32.4608-14.11072 32.512 14.18752 32.54784-14.18752 25.99936 11.52 6.144 2.4576 0.2304-0.09216 0.49152 0.19968 32.0768-13.9776 26.16832 11.40736 6.14912 2.46784 0.29696-0.11776 0.49664 0.19456 32.06144-13.952 32.31744 14.08 32.55808-14.18752 32.55808 14.1824 30.8736-13.43488z m0 50.79552v12.72832l-30.86848 13.42464-32.56832-14.1824-32.55808 14.1824-32.3072-14.08-32.6144 14.18752-32.5632-14.19264-32.57344 14.19264-0.09216-0.04096-32.24576-14.25408-32.56832 14.17728-32.52224-14.17728-32.4608 14.12096v-12.73856l32.4608-14.11072 32.50176 14.1824 32.56832-14.18752 32.36352 14.08 32.58368-14.17728 32.5376 14.1824 32.05632-13.97248 1.408 0.6656 0.512-0.3072 30.96064 13.70624 32.55296-14.1824 32.6144 14.1824 30.8224-13.40928z m-386.6624-36.4544v14.8992l-23.1168-10.04032-5.4528-3.1744-1.19296 0.52224-0.90624-0.36352-4.36736 2.65728-27.0592 11.77088-26.12224-11.40224-6.15424-2.87232-32.81408 14.27968-32.41984-14.08-32.50176 14.1824-32.55296-14.1824-32.41472 14.09536v-17.28512l32.40448-14.09024 32.57344 14.18752 32.50688-14.1824 26.05568 11.52 6.10816 2.85184 32.79872-14.27456 26.12224 11.40224 6.15424 2.47296 0.24576-0.1024 0.49152 0.19968 32.11776-13.97248 29.49632 12.85632v2.1248z m-257.0752 49.78688l32.40448-14.09024 32.57344 14.18752 32.52224-14.18752 32.39936 14.08 32.57344-14.17728 32.4864 14.1824 31.44192-13.68064 1.43872 0.8192 1.1776-0.7168 28.05248 12.44672V361.73824l-29.48608-12.8512-32.60928 14.18752-32.512-14.18752-32.6144 14.18752-32.36864-14.29504-32.51712 14.18752-32.55296-14.1824-32.41472 14.09536v-12.72832z m32.40448-111.11424l32.57344 14.18752 32.52224-14.18752 32.39936 14.08 32.58368-14.1824 32.47616 14.12096 32.61952-14.14144 29.49632 13.08672V264.71424l-29.48608-12.8512-32.60928 14.18752-32.512-14.18752-32.6144 14.18752-32.36864-14.29504-32.51712 14.18752-32.55296-14.1824-32.41472 14.09536v-12.73344l32.40448-14.08512zM227.15392 571.3408c30.26944-27.37664 48.37888-64.37376 51.4304-104.77056l0.50688-0.50688V396.38528l32.40448-14.09024 32.57344 14.18752 32.50688-14.1824 26.05568 11.52 6.10816 2.85184 32.79872-14.27456 26.12224 11.40224 6.15424 2.47296 0.24576-0.1024 0.49152 0.19968 32.11776-13.97248 29.49632 12.85632v61.63456l-0.09216 2.39616c-1.28512 34.54464-16.1792 66.3296-41.92768 89.50784l-74.77248 74.69568c-2.41664 2.41664-4.75648 4.88448-7.02976 7.38816-0.54784 0.60416-1.05984 1.23904-1.60256 1.84832-1.67936 1.8944-3.34848 3.79392-4.95104 5.7344-0.74752 0.90624-1.43872 1.83296-2.17088 2.74432-1.34144 1.68448-2.68288 3.36384-3.96288 5.07904-0.78336 1.0496-1.52576 2.12992-2.28864 3.18976-1.15712 1.60768-2.31936 3.21536-3.42016 4.84864-0.77824 1.14688-1.5104 2.31424-2.25792 3.47648-1.024 1.5872-2.05312 3.16416-3.03616 4.77184-0.7424 1.21856-1.43872 2.45248-2.15552 3.68128-0.9216 1.58208-1.83808 3.15904-2.70848 4.75648-0.69632 1.27488-1.3568 2.56-2.0224 3.84-0.82432 1.5872-1.64352 3.16928-2.432 4.77184-0.64 1.31584-1.24416 2.64704-1.85856 3.968a222.464 222.464 0 0 0-2.16064 4.80256c-0.57856 1.35168-1.13664 2.70848-1.68448 4.06528a193.80736 193.80736 0 0 0-6.40512 18.10432 216.6784 216.6784 0 0 0-2.55488 9.20064 247.97696 247.97696 0 0 0-2.12992 9.30304c-0.34304 1.66912-0.66048 3.34848-0.96256 5.02784a181.4272 181.4272 0 0 0-1.47456 9.4208c-0.18944 1.4336-0.37888 2.87232-0.5376 4.31104-0.19456 1.72032-0.34304 3.44064-0.49664 5.16096-0.12288 1.42848-0.256 2.86208-0.34816 4.29056-0.11264 1.7408-0.18944 3.4816-0.26112 5.2224-0.06144 1.41824-0.128 2.83648-0.15872 4.25984-0.03584 1.7664-0.02048 3.52768-0.01536 5.2992 0.00512 1.38752-0.00512 2.78528 0.03072 4.1728 0.04608 1.80224 0.14336 3.59936 0.23552 5.4016 0.06656 1.36192 0.10752 2.72384 0.20992 4.09088 0.12288 1.84832 0.31744 3.70176 0.49664 5.55008 0.12288 1.30048 0.22528 2.60096 0.37376 3.90144 0.22528 1.98144 0.52224 3.95264 0.80896 5.93408 0.16384 1.16224 0.30208 2.31936 0.49152 3.4816 0.37888 2.33984 0.82944 4.66944 1.29024 6.99904 0.1536 0.78336 0.27648 1.58208 0.44032 2.36544 0.65024 3.10784 1.37216 6.21056 2.16576 9.29792 0.17408 0.67584 0.38912 1.34656 0.56832 2.02752 0.64512 2.40128 1.30048 4.80256 2.03264 7.17824 0.3328 1.10592 0.73216 2.19648 1.08544 3.29728 0.63488 1.94048 1.2544 3.88608 1.9456 5.8112 0.44032 1.23392 0.94208 2.45248 1.40288 3.68128 0.67072 1.77664 1.33632 3.54304 2.05312 5.2992 0.53248 1.29536 1.11616 2.57024 1.67424 3.85536 0.72704 1.66912 1.44384 3.34336 2.22208 5.00224 0.6144 1.31584 1.27488 2.6112 1.91488 3.9168 0.7936 1.60256 1.58208 3.20512 2.41664 4.79744 0.68608 1.3056 1.41312 2.60096 2.13504 3.89632 0.86016 1.5616 1.72032 3.11296 2.63168 4.65408 0.75776 1.29536 1.55648 2.57536 2.35008 3.85536 0.93184 1.5104 1.86368 3.0208 2.8416 4.51584 0.83968 1.27488 1.70496 2.53952 2.57024 3.80416 1.00352 1.46432 2.01728 2.92352 3.06176 4.36736 0.91136 1.2544 1.8432 2.49856 2.78528 3.7376 0.63488 0.83456 1.2288 1.6896 1.87392 2.51392a179.4048 179.4048 0 0 1-10.44992 9.21088c-29.15328-123.13088-124.47744-221.70624-246.5792-254.96064a177.34144 177.34144 0 0 1 7.87968-8.47872l73.9072-73.89184z m131.8656 358.79936c-0.64 0.32256-1.26976 0.65536-1.90976 0.96768l-2.93888 1.39776c-1.05472 0.47616-2.048 0.9216-3.03104 1.34656-1.02912 0.45568-2.06336 0.90112-3.10272 1.33632a154.7264 154.7264 0 0 1-6.4768 2.57024c-1.54112 0.57344-3.09248 1.13152-4.64384 1.65888-1.13152 0.38912-2.24768 0.77824-3.3792 1.14688l-1.32096 0.40448c-2.21184 0.68608-4.4288 1.32096-6.66112 1.91488-0.24064 0.06656-0.4352 0.12288-0.68608 0.18432a178.304 178.304 0 0 1-10.4448 2.42176l-1.55648 0.31232c-0.74752 0.1536-1.51552 0.27648-2.2784 0.4096-2.41152 0.42496-4.82304 0.80896-7.25504 1.14176-0.73728 0.09728-1.44384 0.19456-2.27328 0.29184-0.68096 0.08704-1.36192 0.14336-2.03264 0.22016-2.19136 0.24064-4.38784 0.45568-6.58944 0.61952-0.86016 0.06144-1.72032 0.14336-2.57024 0.18944l-0.16384 0.01024c-2.4832 0.14336-4.98176 0.19456-7.4752 0.23552-2.21184 0.03584-4.4032 0.04096-6.58944 0-1.1776-0.0256-2.37056-0.04096-3.54816-0.08704-1.03936-0.0512-2.07872-0.09216-3.1488-0.1536l-0.27648-0.02048a181.79072 181.79072 0 0 1-15.0272-1.50528c-0.78848-0.10752-1.57184-0.24064-2.3552-0.36352a175.68768 175.68768 0 0 1-5.84704-1.01888 244.37248 244.37248 0 0 1-8.56576-1.87392c-0.96256-0.22528-1.89952-0.47616-2.85184-0.72192-1.8688-0.49152-3.7376-0.99328-5.59104-1.54624l-0.06656-0.02048a295.68 295.68 0 0 1-6.7584-2.18624c-0.45056-0.1536-0.90624-0.29184-1.3568-0.44544-2.0992-0.73216-4.16256-1.54624-6.2208-2.35008a177.42848 177.42848 0 0 1-60.45696-39.71584c-57.64608-57.64608-68.44928-147.13344-27.35616-216.43776 120.4224 28.08832 214.42048 125.39904 238.3616 246.71232a174.7968 174.7968 0 0 1-5.5552 2.95424z m333.76256-33.19808a179.38432 179.38432 0 0 1-12.93824 11.73504c-0.38912-1.65376-0.84992-3.29216-1.26464-4.93568-0.43008-1.71008-0.85504-3.41504-1.31072-5.10976a358.50752 358.50752 0 0 0-3.0208-10.54208c-0.38912-1.28512-0.74752-2.58048-1.152-3.86048a336.2304 336.2304 0 0 0-4.7616-14.06464c-0.3584-0.98816-0.76288-1.96608-1.13152-2.94912a352.14336 352.14336 0 0 0-4.29568-10.96192c-0.66048-1.59232-1.3568-3.16928-2.03264-4.75136a360.74496 360.74496 0 0 0-6.4-13.99808 342.272 342.272 0 0 0-4.63872-9.18016c-0.7424-1.41824-1.45408-2.84672-2.21696-4.2496a353.76128 353.76128 0 0 0-7.38816-13.06112 15.32928 15.32928 0 0 0-18.24256-6.6304 15.36512 15.36512 0 0 0-8.13568 22.37952c2.44736 4.096 4.78208 8.2432 7.02976 12.42624 0.73728 1.37216 1.408 2.7648 2.1248 4.14208 1.47456 2.83648 2.93888 5.67296 4.32128 8.54528 0.80384 1.66912 1.54624 3.35872 2.31424 5.03296 1.20832 2.62656 2.41152 5.248 3.53792 7.90528 0.768 1.80736 1.49504 3.63008 2.23232 5.44768 1.03936 2.56512 2.05824 5.13536 3.03104 7.72608 0.70656 1.8944 1.3824 3.79392 2.048 5.69856a284.65152 284.65152 0 0 1 4.4288 13.568 380.22656 380.22656 0 0 1 3.80928 13.71648c0.67584 2.688 1.3056 5.39648 1.90976 8.10496 0.4352 1.92512 0.87552 3.84512 1.26976 5.77536 0.15872 0.78336 0.29184 1.5872 0.44544 2.37056-2.0992 1.15712-4.224 2.304-6.48704 3.45088l-3.85536 1.83296c-4.68992 2.11968-8.50944 3.72224-12.2624 5.11488-1.1776 0.4608-2.31424 0.89088-3.88608 1.41312-1.88416 0.6912-3.81952 1.34144-5.39648 1.83808l-0.52736 0.1536c-0.41472 0.12288-0.81408 0.25088-1.23904 0.34816l-1.10592 0.3072c-1.67424 0.53248-3.39456 1.01376-5.46816 1.55136a78.7968 78.7968 0 0 1-2.9696 0.75264l-0.67072 0.16384a42.496 42.496 0 0 1-3.07712 0.70656l-4.70528 0.94208c-1.07008 0.22528-2.176 0.4096-3.31776 0.59904l-2.11456 0.37888c-0.99328 0.1792-1.99168 0.31232-3.00544 0.44032l-1.42848 0.1792c-1.32608 0.20992-2.68288 0.37376-4.3264 0.52736-1.1776 0.13312-2.36032 0.27136-3.64032 0.36352l-4.3776 0.33792c-1.16736 0.11264-2.37056 0.14336-3.61472 0.18432l-0.55808 0.0256c-0.5632 0.03072-1.13664 0.07168-1.70496 0.07168l-0.54272 0.01024c-3.9936 0.10752-8.10496 0.10752-11.91424-0.04608a267.0592 267.0592 0 0 1-5.71392-0.3328l-0.65024-0.04096a142.848 142.848 0 0 1-5.59616-0.50688l-4.21888-0.49152c-0.60928-0.06144-1.18784-0.1536-1.792-0.24576l-1.39776-0.20992a128.21504 128.21504 0 0 1-3.92192-0.63488c-1.98144-0.33792-3.96288-0.73216-5.888-1.10592-2.05824-0.4096-4.0704-0.86528-6.27712-1.41312a161.20832 161.20832 0 0 1-8.04864-2.14528 222.17728 222.17728 0 0 1-8.29952-2.66752 194.3808 194.3808 0 0 1-15.90272-6.42048c-2.7648-1.3312-5.48864-2.66752-8.15616-4.02432a326.912 326.912 0 0 1-5.58592-3.0464 182.2464 182.2464 0 0 1-37.2992-28.6464 188.5184 188.5184 0 0 1-6.60992-6.99392l-0.01024-0.01024a177.49504 177.49504 0 0 1-20.77184-209.45408 315.53024 315.53024 0 0 1 136.48384 70.25152l0.01536 0.01024 0.00512 0.00512c0.69632 0.60928 1.43872 1.11104 2.20672 1.57696 0.10752 0.06656 0.19968 0.15872 0.3072 0.22016a15.36 15.36 0 0 0 17.78176-24.86272 349.62432 349.62432 0 0 0-13.96736-11.58656c-0.68096-0.5376-1.35168-1.08544-2.03264-1.6128a346.5984 346.5984 0 0 0-13.89568-10.25024l-2.57024-1.78688a353.08544 353.08544 0 0 0-14.4896-9.45664c-0.66048-0.4096-1.33632-0.79872-2.00192-1.2032a347.35616 347.35616 0 0 0-15.16032-8.70912c-0.24064-0.128-0.48128-0.27648-0.73216-0.40448a342.0672 342.0672 0 0 0-15.80032-7.92576c-0.89088-0.41984-1.77664-0.84992-2.66752-1.26464a346.35776 346.35776 0 0 0-15.64672-6.76352c-0.99328-0.39936-1.99168-0.78848-2.99008-1.18272a341.99552 341.99552 0 0 0-16.24576-5.94944c-0.65536-0.22016-1.31584-0.41984-1.9712-0.63488a343.22432 343.22432 0 0 0-16.29184-4.9408c-0.384-0.10752-0.75264-0.24064-1.14176-0.34304l0.75264-0.87552c2.29376-2.57536 4.64384-5.12 7.1168-7.58272l73.9072-73.86112a160.88064 160.88064 0 0 0 17.95584-19.18976 155.65824 155.65824 0 0 0 33.47456-85.64224l0.45568-0.45056V396.40576l32.4608-14.11072 32.512 14.18752 32.54784-14.18752 25.99936 11.52 6.144 2.4576 0.2304-0.09216 0.49664 0.19968 32.07168-13.97248 26.16832 11.40736 6.14912 2.46784 0.29696-0.11776 0.49664 0.19456 32.06144-13.952 32.31744 14.08 32.55808-14.18752 32.55808 14.1824 30.87872-13.42976v83.95776c-1.41824 0.08192-2.82624 0.2304-4.23424 0.35328-1.1776 0.09728-2.36032 0.16896-3.52768 0.29184-1.69984 0.1792-3.3792 0.41984-5.06368 0.64512-1.09056 0.14848-2.18624 0.26624-3.27168 0.43008-1.80224 0.2816-3.57376 0.62464-5.35552 0.96256-0.95232 0.1792-1.90976 0.32256-2.85696 0.52224-2.21696 0.45568-4.4032 0.98304-6.58944 1.52576-0.49152 0.12288-0.98304 0.21504-1.46944 0.34304a166.1952 166.1952 0 0 0-7.88992 2.24768c-0.88064 0.27136-1.73568 0.5888-2.60608 0.87552-1.72032 0.56832-3.44576 1.1264-5.14048 1.7408-1.06496 0.38912-2.10432 0.82432-3.15904 1.23392-1.47456 0.57344-2.94912 1.13152-4.4032 1.7408-1.12128 0.47104-2.21696 0.98816-3.31776 1.4848-1.36192 0.60928-2.72896 1.2032-4.0704 1.8432-1.13152 0.5376-2.23232 1.12128-3.33824 1.68448-1.29024 0.65536-2.59072 1.29536-3.86048 1.98144-1.11616 0.59904-2.2016 1.23904-3.3024 1.85856-1.23904 0.70144-2.4832 1.39776-3.70688 2.13504-1.09056 0.65536-2.16064 1.34656-3.23584 2.02752-1.18784 0.74752-2.3808 1.49504-3.54816 2.2784-1.06496 0.71168-2.10944 1.45408-3.15904 2.19136-1.14176 0.79872-2.28352 1.59744-3.4048 2.42688-1.03936 0.768-2.05312 1.5616-3.07712 2.35008-1.09568 0.8448-2.18624 1.68448-3.2512 2.55488-1.00864 0.8192-2.00192 1.664-2.99008 2.50368-1.04448 0.89088-2.08384 1.78176-3.10784 2.69824-0.96256 0.86528-1.91488 1.74592-2.86208 2.6368a141.9008 141.9008 0 0 0-5.71904 5.6064 172.19072 172.19072 0 0 0-20.08576 24.92416c-0.768 1.16224-1.51552 2.33472-2.2528 3.51744-0.68608 1.09568-1.36704 2.18624-2.02752 3.29728-0.7168 1.2032-1.40288 2.42176-2.09408 3.64032-0.62976 1.12128-1.25952 2.24256-1.85856 3.3792-0.6656 1.24416-1.3056 2.50368-1.93536 3.76832-0.57344 1.14688-1.152 2.28864-1.69472 3.45088-0.60928 1.28512-1.18784 2.59072-1.7664 3.89632-0.52224 1.17248-1.03936 2.33472-1.53088 3.51744-0.55296 1.3312-1.07008 2.67264-1.5872 4.0192-0.4608 1.18784-0.93184 2.37568-1.36192 3.57376-0.49664 1.37216-0.9472 2.75968-1.40288 4.1472-0.39936 1.2032-0.80384 2.40128-1.1776 3.61472-0.4352 1.42336-0.82432 2.8672-1.22368 4.3008-0.32768 1.2032-0.68096 2.4064-0.98816 3.61984-0.37376 1.47968-0.70144 2.97472-1.02912 4.46976-0.27136 1.19808-0.55808 2.39616-0.80384 3.60448-0.31744 1.55136-0.56832 3.11296-0.83968 4.67968-0.19968 1.1776-0.43008 2.34496-0.60416 3.52768-0.25088 1.64864-0.44032 3.31776-0.64 4.98688-0.128 1.12128-0.30208 2.23232-0.4096 3.35872-0.18944 1.86368-0.3072 3.74784-0.43008 5.63712-0.06144 0.9472-0.15872 1.87392-0.20992 2.82624a166.6048 166.6048 0 0 0 0.09728 18.58048c0.06656 1.1008 0.18432 2.18624 0.27136 3.28704 0.17408 2.22208 0.3584 4.43392 0.61952 6.64064 0.14848 1.28 0.34816 2.54976 0.53248 3.82464 0.28672 2.00704 0.57856 3.99872 0.93184 5.98528 0.24064 1.33632 0.50688 2.65728 0.77312 3.97824 0.38912 1.91488 0.79872 3.8144 1.24928 5.7088a162.36032 162.36032 0 0 0 2.59584 9.5744c0.38912 1.29024 0.77312 2.57536 1.19296 3.85024 0.61952 1.8944 1.29536 3.76832 1.98656 5.64224 0.44032 1.19296 0.86016 2.40128 1.3312 3.584 0.78848 2.01728 1.64864 3.99872 2.51392 5.98016 0.44032 0.9984 0.84992 2.01728 1.31072 3.00544 1.23904 2.69312 2.56 5.3504 3.9424 7.97696 0.13312 0.25088 0.25088 0.51712 0.384 0.76288 1.536 2.88256 3.15904 5.7088 4.85888 8.49408 0.50688 0.82944 1.05472 1.62816 1.57696 2.44736 1.22368 1.94048 2.46272 3.8656 3.76832 5.75488 0.6912 0.98816 1.41312 1.96096 2.1248 2.93376 1.20832 1.67424 2.43712 3.33824 3.712 4.97664 0.7936 1.01376 1.6128 2.01216 2.43712 3.01056a157.696 157.696 0 0 0 10.69056 11.8784c0.91648 0.92672 1.83296 1.84832 2.77504 2.75968 1.49504 1.44384 3.03104 2.85184 4.5824 4.23936 0.9216 0.82432 1.82784 1.65888 2.7648 2.46272 0.37888 0.32256 0.73728 0.67584 1.11616 0.99328l-130.70848 130.66752z m228.67968-281.71264l-0.09728 0.6144c-5.07392 39.43936-22.58944 75.10016-50.67264 103.13728l-25.36448 25.40544c-0.67584-0.54784-1.36192-1.09568-2.02752-1.65376a145.2032 145.2032 0 0 1-2.688-2.31424 148.25984 148.25984 0 0 1-3.4816-3.2256 137.088 137.088 0 0 1-2.48832-2.39104c-1.16224-1.16736-2.28352-2.36544-3.4048-3.56352-0.73216-0.78336-1.47456-1.55648-2.19136-2.3552-1.19808-1.35168-2.3552-2.7392-3.50208-4.13696-0.56832-0.69632-1.16736-1.37216-1.72544-2.0736a138.68544 138.68544 0 0 1-4.78208-6.40512c-0.08704-0.11776-0.16384-0.24576-0.25088-0.36864a136.63744 136.63744 0 0 1-4.22912-6.44096c-0.47616-0.768-0.90624-1.57184-1.36704-2.35008-0.91136-1.536-1.81248-3.07712-2.66752-4.64384-0.50176-0.93696-0.96256-1.88928-1.44896-2.83648a138.6496 138.6496 0 0 1-2.16576-4.37248c-0.47616-1.01888-0.9216-2.05312-1.37216-3.09248-0.62976-1.4336-1.24928-2.88256-1.82784-4.34176a143.91808 143.91808 0 0 1-1.22368-3.2256 143.83616 143.83616 0 0 1-2.60096-7.71584 162.3808 162.3808 0 0 1-2.14528-7.84896 131.65056 131.65056 0 0 1-1.01376-4.64384c-0.2304-1.11104-0.46592-2.21696-0.6656-3.328a130.23744 130.23744 0 0 1-0.76288-4.90496c-0.14848-1.06496-0.32256-2.11968-0.45056-3.18976-0.21504-1.81248-0.36352-3.65056-0.512-5.4784-0.07168-0.90624-0.17408-1.80224-0.2304-2.70848a143.11424 143.11424 0 0 1-0.256-8.2688c0-2.34496 0.06656-4.67456 0.17408-6.99392 0.04096-0.75776 0.11776-1.51552 0.16896-2.27328 0.1024-1.54624 0.19968-3.09248 0.34816-4.62848 0.09216-0.91136 0.22528-1.80736 0.32768-2.70848 0.16384-1.37216 0.32256-2.7392 0.52736-4.096 0.14336-0.96256 0.32256-1.90976 0.4864-2.8672 0.22016-1.28512 0.4352-2.57024 0.6912-3.84512 0.19456-0.96768 0.42496-1.93024 0.64-2.8928 0.27648-1.23392 0.54272-2.46784 0.85504-3.69664 0.24576-0.9728 0.52224-1.93536 0.78336-2.89792 0.32768-1.19296 0.66048-2.39104 1.01888-3.56864 0.29696-0.96768 0.6144-1.92512 0.93184-2.88256 0.37888-1.15712 0.75776-2.30912 1.17248-3.45088 0.34304-0.96256 0.71168-1.90464 1.0752-2.85696 0.43008-1.1264 0.86528-2.24768 1.32608-3.35872 0.38912-0.93696 0.7936-1.85856 1.19808-2.78528a122.27072 122.27072 0 0 1 2.816-6.00576 141.88544 141.88544 0 0 1 3.07712-5.8368 144.0256 144.0256 0 0 1 3.34848-5.66784 128.57856 128.57856 0 0 1 3.59424-5.48352c0.67584-0.97792 1.36704-1.9456 2.06336-2.89792a129.85856 129.85856 0 0 1 3.98848-5.21728c0.61952-0.768 1.23904-1.54624 1.87392-2.29888 0.77312-0.92672 1.57184-1.82784 2.36544-2.72896 0.64512-0.73216 1.28512-1.46432 1.9456-2.18112 0.82432-0.896 1.67424-1.77152 2.52416-2.64704 0.6656-0.6912 1.3312-1.38752 2.01216-2.05824 0.88064-0.8704 1.78688-1.71008 2.68288-2.55488 0.68608-0.65024 1.37216-1.30048 2.06848-1.93536 0.94208-0.8448 1.90464-1.664 2.87232-2.48832 0.6912-0.5888 1.37728-1.18784 2.07872-1.77152 1.02912-0.8448 2.08896-1.65376 3.14368-2.46784 0.6656-0.52224 1.32608-1.0496 2.00704-1.55648 1.14688-0.85504 2.31936-1.66912 3.50208-2.48832 0.6144-0.4352 1.21856-0.88576 1.8432-1.3056 1.40288-0.9472 2.8416-1.84832 4.28544-2.74944 0.41472-0.26112 0.81408-0.53248 1.23392-0.78848 1.88416-1.14688 3.79904-2.24768 5.73952-3.30752l0.36352-0.18944c1.81248-0.97792 3.64544-1.92 5.504-2.82112 0.58368-0.28672 1.19296-0.54272 1.78688-0.8192 1.40288-0.65536 2.81088-1.31072 4.23424-1.92 0.74752-0.32256 1.51552-0.60928 2.27328-0.91136 1.29024-0.52736 2.58048-1.05472 3.8912-1.536 0.83968-0.31232 1.69984-0.59392 2.54976-0.88576 1.24928-0.4352 2.49344-0.87552 3.75808-1.28 0.896-0.2816 1.80736-0.53248 2.70336-0.79872 1.23904-0.36352 2.47808-0.73216 3.73248-1.06496 0.93696-0.24576 1.88928-0.46592 2.83648-0.69632 1.23392-0.30208 2.47296-0.59904 3.72736-0.86016 0.97792-0.20992 1.96096-0.38912 2.944-0.57344 1.23904-0.23552 2.4832-0.46592 3.73248-0.67072 0.9984-0.15872 2.01216-0.29696 3.0208-0.4352 1.24928-0.17408 2.5088-0.34304 3.77344-0.48128 1.024-0.11264 2.05312-0.2048 3.08736-0.29696 0.74752-0.06656 1.50528-0.11776 2.25792-0.17408v102.35904c0.01536 4.66944-0.4352 9.58464-1.35168 15.01696z" p-id="16254"></path></svg>